<svg width="100" height="100" viewBox="0 0 100 100" fill="none" xmlns="http://www.w3.org/2000/svg">
<g id="reactjs">
<rect width="100" height="100" rx="18" fill="#252525"/>
<g id="reactjs_2">
<path id="Vector" d="M49.5 57.1103C53.5656 57.1103 56.8614 53.8145 56.8614 49.7489C56.8614 45.6834 53.5656 42.3876 49.5 42.3876C45.4345 42.3876 42.1387 45.6834 42.1387 49.7489C42.1387 53.8145 45.4345 57.1103 49.5 57.1103Z" fill="#61DAFB"/>
<path id="Vector_2" d="M49.5 64.8308C71.3152 64.8308 89 58.0784 89 49.7489C89 41.4195 71.3152 34.6671 49.5 34.6671C27.6848 34.6671 10 41.4195 10 49.7489C10 58.0784 27.6848 64.8308 49.5 64.8308Z" stroke="#61DAFB" stroke-width="4.17489"/>
<path id="Vector_3" d="M36.4388 57.2898C47.3464 76.1824 62.0365 88.1216 69.25 83.9569C76.4636 79.7922 73.4689 61.1006 62.5613 42.208C51.6537 23.3154 36.9636 11.3762 29.75 15.5409C22.5365 19.7056 25.5312 38.3973 36.4388 57.2898Z" stroke="#61DAFB" stroke-width="4.17489"/>
<path id="Vector_4" d="M36.4388 42.208C25.5312 61.1005 22.5365 79.7922 29.75 83.9569C36.9636 88.1216 51.6537 76.1823 62.5613 57.2898C73.4689 38.3972 76.4636 19.7056 69.25 15.5409C62.0365 11.3761 47.3464 23.3154 36.4388 42.208Z" stroke="#61DAFB" stroke-width="4.17489"/>
</g>
</g>
</svg>
