<svg width="100" height="100" viewBox="0 0 100 100" fill="none" xmlns="http://www.w3.org/2000/svg">
<g id="tailwindcss">
<rect width="100" height="100" rx="18" fill="#192127"/>
<g id="tailwindcss_2">
<path id="Vector" d="M49.5 26C38.6997 26 31.9498 31.3986 29.2495 42.1949C33.3 36.7963 38.0251 34.7725 43.4247 36.1217C46.5059 36.8915 48.7079 39.1269 51.1459 41.6003C55.1164 45.6296 59.7119 50.2929 69.7505 50.2929C80.5498 50.2929 87.3007 44.8942 90 34.0969C85.9505 39.4956 81.2254 41.5203 75.8248 40.1712C72.7446 39.4014 70.5426 37.166 68.1046 34.6925C64.1341 30.6633 59.5376 26 49.5 26V26ZM29.2495 50.2929C18.4502 50.2929 11.6993 55.6915 9 66.4888C13.0495 61.0901 17.7746 59.0654 23.1753 60.4156C26.2554 61.1864 28.4574 63.4208 30.8954 65.8932C34.8659 69.9224 39.4624 74.5868 49.5 74.5868C60.3003 74.5868 67.0502 69.1881 69.7505 58.3908C65.7 63.7895 60.9749 65.8142 55.5753 64.464C52.4941 63.6953 50.2921 61.4588 47.8541 58.9864C43.8836 54.9572 39.2881 50.2929 29.2495 50.2929V50.2929Z" fill="#06B6D4"/>
</g>
</g>
</svg>
