<svg width="367" height="206" viewBox="0 0 367 206" fill="none" xmlns="http://www.w3.org/2000/svg">
<g clip-path="url(#clip0_318_196)">
<mask id="path-1-inside-1_318_196" fill="white">
<path d="M0 0H366V252H0V0Z"/>
</mask>
<path d="M0 0V-1H-1V0H0ZM366 0H367V-1H366V0ZM0 1H366V-1H0V1ZM365 0V252H367V0H365ZM1 252V0H-1V252H1Z" fill="url(#paint0_linear_318_196)" mask="url(#path-1-inside-1_318_196)"/>
<rect width="14" height="14" fill="#4C4C4C"/>
<rect x="352" width="14" height="14" fill="#4C4C4C"/>
<g opacity="0.44">
<line y1="77.817" x2="366" y2="77.817" stroke="url(#paint1_linear_318_196)" stroke-width="0.32605"/>
<line y1="30.817" x2="366" y2="30.817" stroke="url(#paint2_linear_318_196)" stroke-width="0.32605"/>
<line y1="124.817" x2="366" y2="124.817" stroke="url(#paint3_linear_318_196)" stroke-width="0.32605"/>
<line y1="93.817" x2="366" y2="93.817" stroke="url(#paint4_linear_318_196)" stroke-width="0.32605"/>
<line y1="46.817" x2="366" y2="46.817" stroke="url(#paint5_linear_318_196)" stroke-width="0.32605"/>
<line y1="140.817" x2="366" y2="140.817" stroke="url(#paint6_linear_318_196)" stroke-width="0.32605"/>
<line y1="14.817" x2="366" y2="14.817" stroke="url(#paint7_linear_318_196)" stroke-width="0.32605"/>
<line y1="108.817" x2="366" y2="108.817" stroke="url(#paint8_linear_318_196)" stroke-width="0.32605"/>
<line y1="61.817" x2="366" y2="61.817" stroke="url(#paint9_linear_318_196)" stroke-width="0.32605"/>
<line y1="155.817" x2="366" y2="155.817" stroke="url(#paint10_linear_318_196)" stroke-width="0.32605"/>
<line y1="171.817" x2="366" y2="171.817" stroke="url(#paint11_linear_318_196)" stroke-width="0.32605"/>
<line y1="186.817" x2="366" y2="186.817" stroke="url(#paint12_linear_318_196)" stroke-width="0.32605"/>
<line y1="202.817" x2="366" y2="202.817" stroke="url(#paint13_linear_318_196)" stroke-width="0.32605"/>
<line x1="365.834" y1="365.031" x2="365.834" y2="-7.08237" stroke="url(#paint14_linear_318_196)" stroke-width="0.331497"/>
<line x1="270.268" y1="365.848" x2="270.268" y2="-6.26547" stroke="url(#paint15_linear_318_196)" stroke-width="0.331497"/>
<line x1="318.051" y1="365.44" x2="318.051" y2="-6.67368" stroke="url(#paint16_linear_318_196)" stroke-width="0.331497"/>
<line x1="222.484" y1="366.257" x2="222.484" y2="-5.85629" stroke="url(#paint17_linear_318_196)" stroke-width="0.331497"/>
<line x1="349.568" y1="365.17" x2="349.568" y2="-6.9437" stroke="url(#paint18_linear_318_196)" stroke-width="0.331497"/>
<line x1="254.001" y1="365.988" x2="254.001" y2="-6.12582" stroke="url(#paint19_linear_318_196)" stroke-width="0.331497"/>
<line x1="301.784" y1="365.579" x2="301.784" y2="-6.535" stroke="url(#paint20_linear_318_196)" stroke-width="0.331497"/>
<line x1="206.218" y1="366.396" x2="206.218" y2="-5.71713" stroke="url(#paint21_linear_318_196)" stroke-width="0.331497"/>
<line x1="334.318" y1="365.301" x2="334.318" y2="-6.81284" stroke="url(#paint22_linear_318_196)" stroke-width="0.331497"/>
<line x1="238.751" y1="366.118" x2="238.751" y2="-5.99594" stroke="url(#paint23_linear_318_196)" stroke-width="0.331497"/>
<line x1="286.534" y1="365.709" x2="286.534" y2="-6.40463" stroke="url(#paint24_linear_318_196)" stroke-width="0.331497"/>
<line x1="190.968" y1="366.527" x2="190.968" y2="-5.58676" stroke="url(#paint25_linear_318_196)" stroke-width="0.331497"/>
<line x1="174.701" y1="366.666" x2="174.701" y2="-5.4476" stroke="url(#paint26_linear_318_196)" stroke-width="0.331497"/>
<line x1="79.1342" y1="367.483" x2="79.1342" y2="-4.63071" stroke="url(#paint27_linear_318_196)" stroke-width="0.331497"/>
<line x1="126.918" y1="367.074" x2="126.918" y2="-5.0394" stroke="url(#paint28_linear_318_196)" stroke-width="0.331497"/>
<line x1="31.3509" y1="367.892" x2="31.3509" y2="-4.22153" stroke="url(#paint29_linear_318_196)" stroke-width="0.331497"/>
<line x1="159.451" y1="366.796" x2="159.451" y2="-5.31723" stroke="url(#paint30_linear_318_196)" stroke-width="0.331497"/>
<line x1="63.8843" y1="367.613" x2="63.8843" y2="-4.50034" stroke="url(#paint31_linear_318_196)" stroke-width="0.331497"/>
<line x1="111.668" y1="367.205" x2="111.668" y2="-4.90854" stroke="url(#paint32_linear_318_196)" stroke-width="0.331497"/>
<line x1="16.1011" y1="368.022" x2="16.1011" y2="-4.09164" stroke="url(#paint33_linear_318_196)" stroke-width="0.331497"/>
<line x1="143.184" y1="366.936" x2="143.184" y2="-5.17807" stroke="url(#paint34_linear_318_196)" stroke-width="0.331497"/>
<line x1="47.6175" y1="367.753" x2="47.6175" y2="-4.36069" stroke="url(#paint35_linear_318_196)" stroke-width="0.331497"/>
<line x1="95.4009" y1="367.344" x2="95.4009" y2="-4.76938" stroke="url(#paint36_linear_318_196)" stroke-width="0.331497"/>
</g>
<g clip-path="url(#clip1_318_196)">
<g filter="url(#filter0_d_318_196)">
<path d="M153.25 75.375C153.25 71.4299 154.817 67.6464 157.607 64.8568C160.396 62.0672 164.18 60.5 168.125 60.5H183V90.25H168.125C164.18 90.25 160.396 88.6828 157.607 85.8932C154.817 83.1036 153.25 79.3201 153.25 75.375Z" fill="#1B1B1B"/>
<path d="M153.25 75.375C153.25 71.4299 154.817 67.6464 157.607 64.8568C160.396 62.0672 164.18 60.5 168.125 60.5H183V90.25H168.125C164.18 90.25 160.396 88.6828 157.607 85.8932C154.817 83.1036 153.25 79.3201 153.25 75.375Z" stroke="#4C4C4C" stroke-linecap="round" stroke-linejoin="round"/>
</g>
<g filter="url(#filter1_d_318_196)">
<path d="M183 60.5H197.875C199.828 60.5 201.763 60.8848 203.567 61.6323C205.372 62.3798 207.012 63.4755 208.393 64.8568C209.774 66.2381 210.87 67.8779 211.618 69.6826C212.365 71.4873 212.75 73.4216 212.75 75.375C212.75 77.3284 212.365 79.2627 211.618 81.0674C210.87 82.8721 209.774 84.5119 208.393 85.8932C207.012 87.2745 205.372 88.3702 203.567 89.1177C201.763 89.8652 199.828 90.25 197.875 90.25H183V60.5Z" fill="#1B1B1B"/>
<path d="M183 60.5H197.875C199.828 60.5 201.763 60.8848 203.567 61.6323C205.372 62.3798 207.012 63.4755 208.393 64.8568C209.774 66.2381 210.87 67.8779 211.618 69.6826C212.365 71.4873 212.75 73.4216 212.75 75.375C212.75 77.3284 212.365 79.2627 211.618 81.0674C210.87 82.8721 209.774 84.5119 208.393 85.8932C207.012 87.2745 205.372 88.3702 203.567 89.1177C201.763 89.8652 199.828 90.25 197.875 90.25H183V60.5Z" stroke="#4C4C4C" stroke-linecap="round" stroke-linejoin="round"/>
</g>
<g filter="url(#filter2_d_318_196)">
<path d="M183 105.125C183 103.172 183.385 101.237 184.132 99.4326C184.88 97.6279 185.976 95.9881 187.357 94.6068C188.738 93.2255 190.378 92.1298 192.183 91.3823C193.987 90.6348 195.922 90.25 197.875 90.25C199.828 90.25 201.763 90.6348 203.567 91.3823C205.372 92.1298 207.012 93.2255 208.393 94.6068C209.774 95.9881 210.87 97.6279 211.618 99.4326C212.365 101.237 212.75 103.172 212.75 105.125C212.75 107.078 212.365 109.013 211.618 110.817C210.87 112.622 209.774 114.262 208.393 115.643C207.012 117.024 205.372 118.12 203.567 118.868C201.763 119.615 199.828 120 197.875 120C195.922 120 193.987 119.615 192.183 118.868C190.378 118.12 188.738 117.024 187.357 115.643C185.976 114.262 184.88 112.622 184.132 110.817C183.385 109.013 183 107.078 183 105.125Z" fill="#1B1B1B"/>
<path d="M183 105.125C183 103.172 183.385 101.237 184.132 99.4326C184.88 97.6279 185.976 95.9881 187.357 94.6068C188.738 93.2255 190.378 92.1298 192.183 91.3823C193.987 90.6348 195.922 90.25 197.875 90.25C199.828 90.25 201.763 90.6348 203.567 91.3823C205.372 92.1298 207.012 93.2255 208.393 94.6068C209.774 95.9881 210.87 97.6279 211.618 99.4326C212.365 101.237 212.75 103.172 212.75 105.125C212.75 107.078 212.365 109.013 211.618 110.817C210.87 112.622 209.774 114.262 208.393 115.643C207.012 117.024 205.372 118.12 203.567 118.868C201.763 119.615 199.828 120 197.875 120C195.922 120 193.987 119.615 192.183 118.868C190.378 118.12 188.738 117.024 187.357 115.643C185.976 114.262 184.88 112.622 184.132 110.817C183.385 109.013 183 107.078 183 105.125Z" stroke="#4C4C4C" stroke-linecap="round" stroke-linejoin="round"/>
</g>
<g filter="url(#filter3_d_318_196)">
<path d="M153.25 134.875C153.25 130.93 154.817 127.146 157.607 124.357C160.396 121.567 164.18 120 168.125 120H183V134.875C183 138.82 181.433 142.604 178.643 145.393C175.854 148.183 172.07 149.75 168.125 149.75C164.18 149.75 160.396 148.183 157.607 145.393C154.817 142.604 153.25 138.82 153.25 134.875Z" fill="#1B1B1B"/>
<path d="M153.25 134.875C153.25 130.93 154.817 127.146 157.607 124.357C160.396 121.567 164.18 120 168.125 120H183V134.875C183 138.82 181.433 142.604 178.643 145.393C175.854 148.183 172.07 149.75 168.125 149.75C164.18 149.75 160.396 148.183 157.607 145.393C154.817 142.604 153.25 138.82 153.25 134.875Z" stroke="#4C4C4C" stroke-linecap="round" stroke-linejoin="round"/>
</g>
<g filter="url(#filter4_d_318_196)">
<path d="M153.25 105.125C153.25 101.18 154.817 97.3964 157.607 94.6068C160.396 91.8172 164.18 90.25 168.125 90.25H183V120H168.125C164.18 120 160.396 118.433 157.607 115.643C154.817 112.854 153.25 109.07 153.25 105.125Z" fill="#1B1B1B"/>
<path d="M153.25 105.125C153.25 101.18 154.817 97.3964 157.607 94.6068C160.396 91.8172 164.18 90.25 168.125 90.25H183V120H168.125C164.18 120 160.396 118.433 157.607 115.643C154.817 112.854 153.25 109.07 153.25 105.125Z" stroke="#4C4C4C" stroke-linecap="round" stroke-linejoin="round"/>
</g>
</g>
</g>
<defs>
<filter id="filter0_d_318_196" x="148.75" y="60" width="38.75" height="38.75" filterUnits="userSpaceOnUse" color-interpolation-filters="sRGB">
<feFlood flood-opacity="0" result="BackgroundImageFix"/>
<feColorMatrix in="SourceAlpha" type="matrix" values="0 0 0 0 0 0 0 0 0 0 0 0 0 0 0 0 0 0 127 0" result="hardAlpha"/>
<feOffset dy="4"/>
<feGaussianBlur stdDeviation="2"/>
<feComposite in2="hardAlpha" operator="out"/>
<feColorMatrix type="matrix" values="0 0 0 0 0 0 0 0 0 0 0 0 0 0 0 0 0 0 0.25 0"/>
<feBlend mode="normal" in2="BackgroundImageFix" result="effect1_dropShadow_318_196"/>
<feBlend mode="normal" in="SourceGraphic" in2="effect1_dropShadow_318_196" result="shape"/>
</filter>
<filter id="filter1_d_318_196" x="178.5" y="60" width="38.75" height="38.75" filterUnits="userSpaceOnUse" color-interpolation-filters="sRGB">
<feFlood flood-opacity="0" result="BackgroundImageFix"/>
<feColorMatrix in="SourceAlpha" type="matrix" values="0 0 0 0 0 0 0 0 0 0 0 0 0 0 0 0 0 0 127 0" result="hardAlpha"/>
<feOffset dy="4"/>
<feGaussianBlur stdDeviation="2"/>
<feComposite in2="hardAlpha" operator="out"/>
<feColorMatrix type="matrix" values="0 0 0 0 0 0 0 0 0 0 0 0 0 0 0 0 0 0 0.25 0"/>
<feBlend mode="normal" in2="BackgroundImageFix" result="effect1_dropShadow_318_196"/>
<feBlend mode="normal" in="SourceGraphic" in2="effect1_dropShadow_318_196" result="shape"/>
</filter>
<filter id="filter2_d_318_196" x="178.5" y="89.75" width="38.75" height="38.75" filterUnits="userSpaceOnUse" color-interpolation-filters="sRGB">
<feFlood flood-opacity="0" result="BackgroundImageFix"/>
<feColorMatrix in="SourceAlpha" type="matrix" values="0 0 0 0 0 0 0 0 0 0 0 0 0 0 0 0 0 0 127 0" result="hardAlpha"/>
<feOffset dy="4"/>
<feGaussianBlur stdDeviation="2"/>
<feComposite in2="hardAlpha" operator="out"/>
<feColorMatrix type="matrix" values="0 0 0 0 0 0 0 0 0 0 0 0 0 0 0 0 0 0 0.25 0"/>
<feBlend mode="normal" in2="BackgroundImageFix" result="effect1_dropShadow_318_196"/>
<feBlend mode="normal" in="SourceGraphic" in2="effect1_dropShadow_318_196" result="shape"/>
</filter>
<filter id="filter3_d_318_196" x="148.75" y="119.5" width="38.75" height="38.75" filterUnits="userSpaceOnUse" color-interpolation-filters="sRGB">
<feFlood flood-opacity="0" result="BackgroundImageFix"/>
<feColorMatrix in="SourceAlpha" type="matrix" values="0 0 0 0 0 0 0 0 0 0 0 0 0 0 0 0 0 0 127 0" result="hardAlpha"/>
<feOffset dy="4"/>
<feGaussianBlur stdDeviation="2"/>
<feComposite in2="hardAlpha" operator="out"/>
<feColorMatrix type="matrix" values="0 0 0 0 0 0 0 0 0 0 0 0 0 0 0 0 0 0 0.25 0"/>
<feBlend mode="normal" in2="BackgroundImageFix" result="effect1_dropShadow_318_196"/>
<feBlend mode="normal" in="SourceGraphic" in2="effect1_dropShadow_318_196" result="shape"/>
</filter>
<filter id="filter4_d_318_196" x="148.75" y="89.75" width="38.75" height="38.75" filterUnits="userSpaceOnUse" color-interpolation-filters="sRGB">
<feFlood flood-opacity="0" result="BackgroundImageFix"/>
<feColorMatrix in="SourceAlpha" type="matrix" values="0 0 0 0 0 0 0 0 0 0 0 0 0 0 0 0 0 0 127 0" result="hardAlpha"/>
<feOffset dy="4"/>
<feGaussianBlur stdDeviation="2"/>
<feComposite in2="hardAlpha" operator="out"/>
<feColorMatrix type="matrix" values="0 0 0 0 0 0 0 0 0 0 0 0 0 0 0 0 0 0 0.25 0"/>
<feBlend mode="normal" in2="BackgroundImageFix" result="effect1_dropShadow_318_196"/>
<feBlend mode="normal" in="SourceGraphic" in2="effect1_dropShadow_318_196" result="shape"/>
</filter>
<linearGradient id="paint0_linear_318_196" x1="183" y1="0" x2="183" y2="252" gradientUnits="userSpaceOnUse">
<stop stop-color="#4C4C4C"/>
<stop offset="0.705" stop-color="#4C4C4C" stop-opacity="0.33"/>
<stop offset="1" stop-color="#A1A1A1" stop-opacity="0"/>
</linearGradient>
<linearGradient id="paint1_linear_318_196" x1="183" y1="77.98" x2="183" y2="78.98" gradientUnits="userSpaceOnUse">
<stop stop-color="#323232"/>
<stop offset="1" stop-color="#989898"/>
</linearGradient>
<linearGradient id="paint2_linear_318_196" x1="183" y1="30.98" x2="183" y2="31.98" gradientUnits="userSpaceOnUse">
<stop stop-color="#323232"/>
<stop offset="1" stop-color="#989898"/>
</linearGradient>
<linearGradient id="paint3_linear_318_196" x1="183" y1="124.98" x2="183" y2="125.98" gradientUnits="userSpaceOnUse">
<stop stop-color="#323232"/>
<stop offset="1" stop-color="#989898"/>
</linearGradient>
<linearGradient id="paint4_linear_318_196" x1="183" y1="93.98" x2="183" y2="94.98" gradientUnits="userSpaceOnUse">
<stop stop-color="#323232"/>
<stop offset="1" stop-color="#989898"/>
</linearGradient>
<linearGradient id="paint5_linear_318_196" x1="183" y1="46.98" x2="183" y2="47.98" gradientUnits="userSpaceOnUse">
<stop stop-color="#323232"/>
<stop offset="1" stop-color="#989898"/>
</linearGradient>
<linearGradient id="paint6_linear_318_196" x1="183" y1="140.98" x2="183" y2="141.98" gradientUnits="userSpaceOnUse">
<stop stop-color="#323232"/>
<stop offset="1" stop-color="#989898"/>
</linearGradient>
<linearGradient id="paint7_linear_318_196" x1="183" y1="14.98" x2="183" y2="15.98" gradientUnits="userSpaceOnUse">
<stop stop-color="#323232"/>
<stop offset="1" stop-color="#989898"/>
</linearGradient>
<linearGradient id="paint8_linear_318_196" x1="183" y1="108.98" x2="183" y2="109.98" gradientUnits="userSpaceOnUse">
<stop stop-color="#323232"/>
<stop offset="1" stop-color="#989898"/>
</linearGradient>
<linearGradient id="paint9_linear_318_196" x1="183" y1="61.98" x2="183" y2="62.98" gradientUnits="userSpaceOnUse">
<stop stop-color="#323232"/>
<stop offset="1" stop-color="#989898"/>
</linearGradient>
<linearGradient id="paint10_linear_318_196" x1="183" y1="155.98" x2="183" y2="156.98" gradientUnits="userSpaceOnUse">
<stop stop-color="#323232"/>
<stop offset="1" stop-color="#989898"/>
</linearGradient>
<linearGradient id="paint11_linear_318_196" x1="183" y1="171.98" x2="183" y2="172.98" gradientUnits="userSpaceOnUse">
<stop stop-color="#323232"/>
<stop offset="1" stop-color="#989898"/>
</linearGradient>
<linearGradient id="paint12_linear_318_196" x1="183" y1="186.98" x2="183" y2="187.98" gradientUnits="userSpaceOnUse">
<stop stop-color="#323232"/>
<stop offset="1" stop-color="#989898"/>
</linearGradient>
<linearGradient id="paint13_linear_318_196" x1="183" y1="202.98" x2="183" y2="203.98" gradientUnits="userSpaceOnUse">
<stop stop-color="#323232"/>
<stop offset="1" stop-color="#989898"/>
</linearGradient>
<linearGradient id="paint14_linear_318_196" x1="366" y1="178.974" x2="367" y2="178.974" gradientUnits="userSpaceOnUse">
<stop stop-color="#323232"/>
<stop offset="1" stop-color="#989898"/>
</linearGradient>
<linearGradient id="paint15_linear_318_196" x1="270.433" y1="179.791" x2="271.433" y2="179.791" gradientUnits="userSpaceOnUse">
<stop stop-color="#323232"/>
<stop offset="1" stop-color="#989898"/>
</linearGradient>
<linearGradient id="paint16_linear_318_196" x1="318.217" y1="179.383" x2="319.217" y2="179.383" gradientUnits="userSpaceOnUse">
<stop stop-color="#323232"/>
<stop offset="1" stop-color="#989898"/>
</linearGradient>
<linearGradient id="paint17_linear_318_196" x1="222.65" y1="180.201" x2="223.65" y2="180.201" gradientUnits="userSpaceOnUse">
<stop stop-color="#323232"/>
<stop offset="1" stop-color="#989898"/>
</linearGradient>
<linearGradient id="paint18_linear_318_196" x1="349.733" y1="179.113" x2="350.733" y2="179.113" gradientUnits="userSpaceOnUse">
<stop stop-color="#323232"/>
<stop offset="1" stop-color="#989898"/>
</linearGradient>
<linearGradient id="paint19_linear_318_196" x1="254.167" y1="179.931" x2="255.167" y2="179.931" gradientUnits="userSpaceOnUse">
<stop stop-color="#323232"/>
<stop offset="1" stop-color="#989898"/>
</linearGradient>
<linearGradient id="paint20_linear_318_196" x1="301.95" y1="179.522" x2="302.95" y2="179.522" gradientUnits="userSpaceOnUse">
<stop stop-color="#323232"/>
<stop offset="1" stop-color="#989898"/>
</linearGradient>
<linearGradient id="paint21_linear_318_196" x1="206.383" y1="180.34" x2="207.383" y2="180.34" gradientUnits="userSpaceOnUse">
<stop stop-color="#323232"/>
<stop offset="1" stop-color="#989898"/>
</linearGradient>
<linearGradient id="paint22_linear_318_196" x1="334.483" y1="179.244" x2="335.483" y2="179.244" gradientUnits="userSpaceOnUse">
<stop stop-color="#323232"/>
<stop offset="1" stop-color="#989898"/>
</linearGradient>
<linearGradient id="paint23_linear_318_196" x1="238.917" y1="180.061" x2="239.917" y2="180.061" gradientUnits="userSpaceOnUse">
<stop stop-color="#323232"/>
<stop offset="1" stop-color="#989898"/>
</linearGradient>
<linearGradient id="paint24_linear_318_196" x1="286.7" y1="179.652" x2="287.7" y2="179.652" gradientUnits="userSpaceOnUse">
<stop stop-color="#323232"/>
<stop offset="1" stop-color="#989898"/>
</linearGradient>
<linearGradient id="paint25_linear_318_196" x1="191.133" y1="180.47" x2="192.133" y2="180.47" gradientUnits="userSpaceOnUse">
<stop stop-color="#323232"/>
<stop offset="1" stop-color="#989898"/>
</linearGradient>
<linearGradient id="paint26_linear_318_196" x1="174.867" y1="180.609" x2="175.867" y2="180.609" gradientUnits="userSpaceOnUse">
<stop stop-color="#323232"/>
<stop offset="1" stop-color="#989898"/>
</linearGradient>
<linearGradient id="paint27_linear_318_196" x1="79.2999" y1="181.426" x2="80.2999" y2="181.426" gradientUnits="userSpaceOnUse">
<stop stop-color="#323232"/>
<stop offset="1" stop-color="#989898"/>
</linearGradient>
<linearGradient id="paint28_linear_318_196" x1="127.083" y1="181.017" x2="128.083" y2="181.017" gradientUnits="userSpaceOnUse">
<stop stop-color="#323232"/>
<stop offset="1" stop-color="#989898"/>
</linearGradient>
<linearGradient id="paint29_linear_318_196" x1="31.5166" y1="181.835" x2="32.5166" y2="181.835" gradientUnits="userSpaceOnUse">
<stop stop-color="#323232"/>
<stop offset="1" stop-color="#989898"/>
</linearGradient>
<linearGradient id="paint30_linear_318_196" x1="159.617" y1="180.74" x2="160.617" y2="180.74" gradientUnits="userSpaceOnUse">
<stop stop-color="#323232"/>
<stop offset="1" stop-color="#989898"/>
</linearGradient>
<linearGradient id="paint31_linear_318_196" x1="64.05" y1="181.556" x2="65.05" y2="181.556" gradientUnits="userSpaceOnUse">
<stop stop-color="#323232"/>
<stop offset="1" stop-color="#989898"/>
</linearGradient>
<linearGradient id="paint32_linear_318_196" x1="111.833" y1="181.148" x2="112.833" y2="181.148" gradientUnits="userSpaceOnUse">
<stop stop-color="#323232"/>
<stop offset="1" stop-color="#989898"/>
</linearGradient>
<linearGradient id="paint33_linear_318_196" x1="16.2668" y1="181.965" x2="17.2668" y2="181.965" gradientUnits="userSpaceOnUse">
<stop stop-color="#323232"/>
<stop offset="1" stop-color="#989898"/>
</linearGradient>
<linearGradient id="paint34_linear_318_196" x1="143.35" y1="180.879" x2="144.35" y2="180.879" gradientUnits="userSpaceOnUse">
<stop stop-color="#323232"/>
<stop offset="1" stop-color="#989898"/>
</linearGradient>
<linearGradient id="paint35_linear_318_196" x1="47.7832" y1="181.696" x2="48.7832" y2="181.696" gradientUnits="userSpaceOnUse">
<stop stop-color="#323232"/>
<stop offset="1" stop-color="#989898"/>
</linearGradient>
<linearGradient id="paint36_linear_318_196" x1="95.5667" y1="181.287" x2="96.5667" y2="181.287" gradientUnits="userSpaceOnUse">
<stop stop-color="#323232"/>
<stop offset="1" stop-color="#989898"/>
</linearGradient>
<clipPath id="clip0_318_196">
<rect width="366.222" height="206" fill="white"/>
</clipPath>
<clipPath id="clip1_318_196">
<rect width="102" height="102" fill="white" transform="translate(132 52)"/>
</clipPath>
</defs>
</svg>
